<svg xmlns="http://www.w3.org/2000/svg" width="1600" height="980" viewBox="0 0 1600 980" role="img" aria-labelledby="title desc">
  <title id="title">Pimate running inside Obsidian</title>
  <desc id="desc">A faithful interface map based on the current Pimate Obsidian view: vault explorer, active note, Pimate history scopes, conversation actions, session tabs, and the dual-engine composer.</desc>
  <defs>
    <filter id="shadow" x="-10%" y="-10%" width="120%" height="130%">
      <feDropShadow dx="0" dy="8" stdDeviation="14" flood-color="#25233a" flood-opacity="0.12"/>
    </filter>
    <style>
      .canvas{fill:#f5f6f8}.window{fill:#fbfbfc;stroke:#dfe1e7;stroke-width:2}.chrome{fill:#f1f2f5;stroke:#e1e3e8;stroke-width:1}.rail{fill:#f4f5f7;stroke:#e1e3e8;stroke-width:1}.pane{fill:#fff;stroke:#e3e5ea;stroke-width:1}.subtle{fill:#f8f8fa;stroke:#e5e6eb;stroke-width:1}.active{fill:#f0ebff;stroke:#966cff;stroke-width:2}.divider{stroke:#e5e6eb;stroke-width:1}.text{fill:#272832;font-family:-apple-system,BlinkMacSystemFont,"Segoe UI","PingFang SC","Microsoft YaHei",Arial,sans-serif}.muted{fill:#70727d;font-family:-apple-system,BlinkMacSystemFont,"Segoe UI","PingFang SC","Microsoft YaHei",Arial,sans-serif}.brand{fill:#d97858;font-family:-apple-system,BlinkMacSystemFont,"Segoe UI","PingFang SC","Microsoft YaHei",Arial,sans-serif;font-weight:700}.accent{fill:#8a63ee;font-family:-apple-system,BlinkMacSystemFont,"Segoe UI","PingFang SC","Microsoft YaHei",Arial,sans-serif}.small{font-size:15px}.body{font-size:17px}.label{font-size:18px;font-weight:600}.title{font-size:24px;font-weight:700}.tiny{font-size:12px}.line{stroke:#9b9da7;stroke-width:1.5;fill:none;stroke-linecap:round;stroke-linejoin:round}.icon{stroke:#6f717b;stroke-width:2;fill:none;stroke-linecap:round;stroke-linejoin:round}.action{fill:#fff;stroke:#d7d9df;stroke-width:1.5}.number{fill:#fff;font-family:-apple-system,BlinkMacSystemFont,"Segoe UI","PingFang SC","Microsoft YaHei",Arial,sans-serif;font-size:13px;font-weight:700}.note{fill:#747680;font-family:-apple-system,BlinkMacSystemFont,"Segoe UI","PingFang SC","Microsoft YaHei",Arial,sans-serif;font-size:13px}
    </style>
  </defs>

  <rect class="canvas" x="0" y="0" width="1600" height="980"/>
  <rect class="window" x="20" y="18" width="1560" height="900" rx="16" filter="url(#shadow)"/>

  <!-- Obsidian window chrome -->
  <rect class="chrome" x="20" y="18" width="1560" height="48" rx="16"/>
  <rect class="chrome" x="20" y="48" width="1560" height="18"/>
  <circle cx="46" cy="42" r="6" fill="#ff6259"/>
  <circle cx="66" cy="42" r="6" fill="#ffbd2e"/>
  <circle cx="86" cy="42" r="6" fill="#28c840"/>
  <rect class="subtle" x="118" y="28" width="34" height="26" rx="6"/>
  <path class="icon" d="M128 36h14M128 42h14M128 48h10"/>
  <circle cx="180" cy="41" r="8" class="icon"/>
  <path class="icon" d="M186 47l6 6"/>
  <rect class="pane" x="510" y="25" width="330" height="32" rx="7"/>
  <text class="muted small" x="532" y="46">番外01-全网认赛博义父 OpenAI…</text>
  <path class="icon" d="M814 35l7 7-7 7"/>
  <path class="icon" d="M864 41h26M877 28v26"/>
  <text class="muted small" x="1410" y="46">66MyMind · Obsidian</text>

  <!-- Left ribbon and vault explorer -->
  <rect class="rail" x="20" y="66" width="58" height="852"/>
  <path class="icon" d="M43 91h14v14H43zM46 88v6M54 88v6"/>
  <path class="icon" d="M43 130c0-5 4-9 9-9s9 4 9 9-4 9-9 9-9-4-9-9zM48 130h8M52 126v8"/>
  <path class="icon" d="M43 169h18M43 177h18M43 185h11"/>
  <path class="icon" d="M43 221h16v16H43zM47 217v8M55 217v8"/>
  <path class="icon" d="M43 268h18M43 276h12M43 284h15"/>
  <rect class="active" x="31" y="314" width="36" height="36" rx="8"/>
  <text class="brand" x="42" y="339" font-size="22">π</text>

  <rect class="pane" x="78" y="66" width="330" height="852"/>
  <text class="text title" x="102" y="106">66MyMind</text>
  <path class="icon" d="M352 93h17v17h-17zM354 91v6M367 91v6"/>
  <path class="icon" d="M382 96l8 8M390 96l-8 8"/>
  <line class="divider" x1="96" y1="124" x2="390" y2="124"/>
  <text class="muted body" x="102" y="154">⌄  _目录盘点</text>
  <text class="muted body" x="102" y="188">⌄  01知识素材</text>
  <text class="muted body" x="102" y="222">⌄  02学习资料</text>
  <text class="muted body" x="102" y="256">⌄  08章鱼哥</text>
  <text class="muted body" x="126" y="290">⌄  01AI学习</text>
  <text class="muted body" x="150" y="324">⌄  00-文案草稿</text>
  <text class="muted body" x="174" y="358">⌄  番外篇</text>
  <rect class="active" x="164" y="374" width="224" height="31" rx="5"/>
  <text class="text small" x="180" y="395">番外01-全网认赛博义父…</text>
  <text class="muted body" x="174" y="438">封面</text>
  <text class="muted body" x="126" y="474">⌄  07-PPT素材</text>
  <text class="muted body" x="150" y="508">07-播放检查-第06页-截图阅读态</text>
  <text class="muted body" x="150" y="542">07-播放检查-第06页-方案原图</text>
  <text class="muted body" x="126" y="594">⌄  07素材</text>
  <text class="muted body" x="126" y="628">⌄  A产品与项目</text>
  <text class="muted body" x="126" y="662">⌄  B客户与反馈</text>
  <text class="muted body" x="126" y="696">⌄  C运营与市场</text>
  <text class="muted body" x="126" y="730">⌄  F临时_待归档</text>
  <line class="divider" x1="96" y1="780" x2="390" y2="780"/>
  <text class="muted small" x="102" y="814">当前 Vault · 本地文件树</text>

  <!-- Active note/editor -->
  <rect class="pane" x="408" y="66" width="460" height="852"/>
  <text class="muted small" x="434" y="102">08章鱼哥 / 01AI学习 / 00-文案草稿</text>
  <line class="divider" x1="434" y1="120" x2="842" y2="120"/>
  <text class="text title" x="434" y="168">番外01-全网认赛博义父</text>
  <text class="text title" x="434" y="198">OpenAI每天一张重置卡</text>
  <text class="text title" x="434" y="228">的顶级套路</text>
  <text class="muted label" x="434" y="274">笔记属性</text>
  <line class="divider" x1="434" y1="288" x2="842" y2="288"/>
  <text class="muted small" x="454" y="322">title</text>
  <text class="text small" x="586" y="322">番外01-全网认赛博义父？OpenAI每天…</text>
  <text class="muted small" x="454" y="356">type</text>
  <text class="text small" x="586" y="356">发布版主文稿（Remotion 渲染版）</text>
  <text class="muted small" x="454" y="390">updated</text>
  <text class="text small" x="586" y="390">2026/09/04</text>
  <text class="muted small" x="454" y="424">series</text>
  <text class="text small" x="586" y="424">01AI学习</text>
  <text class="muted small" x="454" y="458">pipeline</text>
  <text class="text small" x="586" y="458">Remotion (React + TypeScript)</text>
  <line class="divider" x1="434" y1="494" x2="842" y2="494"/>
  <text class="text body" x="434" y="538">番外 01 集：全网认“赛博义父”？</text>
  <text class="muted body" x="434" y="574">系列归属：《AI学习》热点番外篇</text>
  <text class="muted body" x="434" y="610">核心判断：表面是磕头，本质是算力紧缺</text>
  <text class="muted body" x="434" y="646">被包装成手游体力拉新。</text>
  <rect class="subtle" x="434" y="690" width="408" height="100" rx="8"/>
  <text class="muted small" x="454" y="720">当前笔记可直接作为 Pimate 上下文</text>
  <text class="muted small" x="454" y="750">@ 文件 / 文件夹 / 选中文本 → 发送到右侧 Agent</text>
  <text class="muted tiny" x="434" y="862">Obsidian 编辑区：真实 Vault 内容，不是 Pimate 内置示例</text>

  <!-- Pimate real history panel -->
  <rect class="pane" x="868" y="66" width="712" height="852"/>
  <text class="brand title" x="896" y="106">π</text>
  <text class="text title" x="928" y="106">Pimate</text>
  <text class="muted title" x="1498" y="104">···</text>
  <path class="icon" d="M1532 95a10 10 0 1 0 0 20 10 10 0 0 0 0-20zM1532 91v5M1532 114v5M1528 105h-5M1541 105h-5"/>
  <line class="divider" x1="894" y1="128" x2="1554" y2="128"/>
  <text class="muted label" x="896" y="164" letter-spacing="1.5">CONVERSATIONS</text>
  <line class="divider" x1="896" y1="182" x2="1554" y2="182"/>

  <rect class="active" x="896" y="204" width="132" height="38" rx="8"/>
  <text class="accent body" x="913" y="229">当前空间 3</text>
  <rect class="subtle" x="1038" y="204" width="116" height="38" rx="8"/>
  <text class="text body" x="1052" y="229">未归属 42</text>
  <rect class="subtle" x="1164" y="204" width="126" height="38" rx="8"/>
  <text class="text body" x="1177" y="229">全部 AGY 55</text>
  <rect class="subtle" x="896" y="258" width="658" height="42" rx="8"/>
  <text class="muted body" x="915" y="285">搜索历史会话...</text>
  <path class="icon" d="M1515 272a7 7 0 1 0 0 14 7 7 0 0 0 0-14zM1520 282l7 7"/>

  <!-- history row 1 -->
  <rect class="active" x="896" y="320" width="658" height="82" rx="7"/>
  <path class="accent icon" d="M918 345h19v15h-19zM918 345l9 8 10-8"/>
  <text class="text label" x="960" y="348">认知改变与短视频自检</text>
  <text class="muted small" x="960" y="374">Current session</text>
  <rect class="action" x="1504" y="344" width="30" height="30" rx="6"/>
  <path class="icon" d="M1512 351h14v15h-14zM1510 354h-3v15h14v-3"/>

  <!-- history row 2 -->
  <rect class="pane" x="896" y="402" width="658" height="82" rx="7"/>
  <path class="icon" d="M918 429h19v15h-19zM918 429l9 8 10-8"/>
  <text class="text label" x="960" y="432">AI客户推荐长图规划</text>
  <text class="muted small" x="960" y="458">20:38</text>
  <rect class="action" x="1504" y="426" width="30" height="30" rx="6"/>
  <path class="icon" d="M1512 433h14v15h-14zM1510 436h-3v15h14v-3"/>

  <!-- history row 3 -->
  <rect class="pane" x="896" y="484" width="658" height="82" rx="7"/>
  <path class="icon" d="M918 511h19v15h-19zM918 511l9 8 10-8"/>
  <text class="text label" x="960" y="514">联网查询Skill使用</text>
  <text class="muted small" x="960" y="540">18:11</text>
  <rect class="action" x="1504" y="508" width="30" height="30" rx="6"/>
  <path class="icon" d="M1512 515h14v15h-14zM1510 518h-3v15h14v-3"/>

  <text class="note" x="896" y="602">历史范围和数量来自当前 Vault / AGY 数据，示例数字会随使用变化</text>
  <line class="divider" x1="896" y1="626" x2="1554" y2="626"/>

  <!-- session tabs and composer -->
  <rect class="active" x="896" y="650" width="44" height="38" rx="8"/>
  <text class="accent title" x="912" y="677">1</text>
  <rect class="subtle" x="948" y="650" width="44" height="38" rx="8"/>
  <text class="text title" x="964" y="677">2</text>
  <path class="icon" d="M1474 662h16v16h-16zM1478 658v8M1486 658v8"/>
  <path class="icon" d="M1513 678l17-17M1525 658l5 5M1510 681l5-1-4-4z"/>
  <path class="icon" d="M1540 678a12 12 0 1 0-2-17M1538 656v7h7"/>

  <rect class="subtle" x="896" y="704" width="658" height="138" rx="12"/>
  <text class="muted title" x="918" y="744">How can I help you today?</text>
  <rect class="pane" x="918" y="770" width="122" height="30" rx="6"/>
  <text class="accent small" x="932" y="790">✦ Antigravity</text>
  <text class="brand small" x="1058" y="790">Gemini 3.8-flash-high</text>
  <text class="muted small" x="1285" y="790">Effort:</text>
  <text class="brand small" x="1345" y="790">High</text>
  <path class="icon" d="M1408 780h20l7 7v9h-27zM1412 780v-5h14v5"/>
  <circle cx="1480" cy="788" r="9" fill="none" stroke="#dfe1e7" stroke-width="2"/>
  <rect class="action" x="1518" y="728" width="28" height="28" rx="14"/>
  <path class="icon" d="M1525 740l7-7 7 7M1532 733v14"/>
  <rect class="action" x="1518" y="764" width="28" height="28" rx="14"/>
  <path class="icon" d="M1525 778l7 7 7-7M1532 785v-14"/>
  <rect class="action" x="1518" y="800" width="28" height="28" rx="14"/>
  <path class="icon" d="M1525 814h14M1532 807v14"/>

  <!-- concise callouts -->
  <g>
    <circle cx="48" cy="944" r="13" fill="#8a63ee"/><text class="number" x="44" y="949">1</text>
    <text class="text small" x="70" y="950">Obsidian Vault / 当前笔记</text>
    <circle cx="312" cy="944" r="13" fill="#8a63ee"/><text class="number" x="308" y="949">2</text>
    <text class="text small" x="334" y="950">Pimate 历史范围</text>
    <circle cx="526" cy="944" r="13" fill="#8a63ee"/><text class="number" x="522" y="949">3</text>
    <text class="text small" x="548" y="950">会话移至未归属</text>
    <circle cx="760" cy="944" r="13" fill="#8a63ee"/><text class="number" x="756" y="949">4</text>
    <text class="text small" x="782" y="950">多会话卡</text>
    <circle cx="922" cy="944" r="13" fill="#8a63ee"/><text class="number" x="918" y="949">5</text>
    <text class="text small" x="944" y="950">引擎 / 模型 / Effort / 输入</text>
  </g>
</svg>
